<svg xmlns="http://www.w3.org/2000/svg" viewBox="0 0 160 96" role="img" aria-label="Australian flag">
  <rect width="160" height="96" fill="#012169"/>

  <g>
    <rect width="80" height="48" fill="#012169"/>

    <polygon points="0,0 10,0 80,38 80,48 70,48 0,10" fill="#fff"/>
    <polygon points="80,0 70,0 0,38 0,48 10,48 80,10" fill="#fff"/>
    <polygon points="0,0 5,0 80,42 80,48 75,48 0,6" fill="#c8102e"/>
    <polygon points="80,0 75,0 0,42 0,48 5,48 80,6" fill="#c8102e"/>

    <rect x="33" width="14" height="48" fill="#fff"/>
    <rect y="17" width="80" height="14" fill="#fff"/>
    <rect x="36" width="8" height="48" fill="#c8102e"/>
    <rect y="20" width="80" height="8" fill="#c8102e"/>
  </g>

  <circle cx="56" cy="72" r="7" fill="#fff"/>

  <circle cx="118" cy="20" r="4.3" fill="#fff"/>
  <circle cx="134" cy="37" r="4.3" fill="#fff"/>
  <circle cx="121" cy="53" r="4.3" fill="#fff"/>
  <circle cx="103" cy="45" r="4.3" fill="#fff"/>
  <circle cx="139" cy="58" r="2.5" fill="#fff"/>
</svg>
